#!OML:ASF H:\Male1\Project 1\Capture day 1\Session 1\Male1.ASF
:FULLY-SPECIFIED
:DEGREES
198
root 12.134 22.1328 0.324438 -176.83 -81.4041 175.446
lowerback 8.89442 2.01246 -2.61697
upperback 5.95033 2.21025 -2.29052
thorax 1.17595 0.9545 -1.07015
lowerneck -6.45624 3.86072 8.01933
upperneck 22.1366 3.88454 -1.29811
head 8.11929 2.1696 -1.4577
rclavicle -5.96354e-015 0
rhumerus -33.8541 3.81145 -87.1857
rradius 38.1153
rwrist -20.5238
rhand -16.3578 1.46929
rfingers 7.12502
rthumb 9.85501 -28.2801
lclavicle -5.96354e-015 0
lhumerus -25.4783 -4.08004 83.1222
lradius 30.2141
lwrist -3.46893
lhand -17.637 9.52691
lfingers 7.12502
lthumb 8.62068 39.3309
rfemur -14.9386 5.61025 24.2709
rtibia 36.5028
rfoot -25.6742 -19.1173
rtoes -31.0602
lfemur -12.9733 -10.4415 -26.5166
ltibia 34.4597
lfoot -23.1645 18.1502
ltoes 1.60552
199
root 12.1511 22.132 0.351124 -175.525 -81.017 174.211
lowerback 9.03364 2.05264 -2.93902
upperback 5.99262 2.22482 -2.42018
thorax 1.13776 0.950544 -1.02956
lowerneck -6.45751 3.93427 8.16104
upperneck 22.2361 3.9688 -1.35809
head 8.16291 2.21421 -1.4934
rclavicle 2.16675e-014 -2.54444e-014
rhumerus -33.6849 3.78947 -87.2338
rradius 38.4795
rwrist -20.6226
rhand -16.298 1.46764
rfingers 7.12502
rthumb 9.91263 -28.279
lclavicle 2.16675e-014 -2.54444e-014
lhumerus -25.4615 -4.17611 82.9034
lradius 30.055
lwrist -3.49711
lhand -17.7124 9.59454
lfingers 7.12502
lthumb 8.54787 39.4015
rfemur -15.7138 5.46445 23.9349
rtibia 37.6047
rfoot -25.7164 -19.0171
rtoes -33.0363
lfemur -13.0169 -9.85873 -26.741
ltibia 34.1762
lfoot -22.9477 17.9564
ltoes 1.2786
200
root 12.1704 22.1321 0.376828 -174.291 -80.673 173.052
lowerback 9.19408 2.07233 -3.26193
upperback 6.0352 2.20947 -2.54655
thorax 1.08841 0.931453 -0.98356
lowerneck -6.46719 4.01478 8.25464
upperneck 22.3469 4.06802 -1.41379
head 8.21134 2.26244 -1.51815
rclavicle 2.98177e-015 -3.49861e-014
rhumerus -33.5246 3.84186 -87.311
rradius 38.8695
rwrist -20.7687
rhand -16.2537 1.47176
rfingers 7.12502
rthumb 9.95539 -28.2728
lclavicle 2.98177e-015 -3.49861e-014
lhumerus -25.4224 -4.27726 82.6719
lradius 29.9104
lwrist -3.50177
lhand -17.7838 9.61829
lfingers 7.12502
lthumb 8.47896 39.4281
rfemur -16.5556 5.26591 23.6146
rtibia 38.9487
rfoot -25.7851 -18.9217
rtoes -34.6117
lfemur -13.0762 -9.24269 -26.9492
ltibia 33.8756
lfoot -22.7201 17.663
ltoes 1.03605
201
root 12.1911 22.1338 0.401707 -173.264 -80.3971 172.087
lowerback 9.37556 2.0629 -3.55859
upperback 6.08786 2.15506 -2.65508
thorax 1.03891 0.893056 -0.931059
lowerneck -6.50719 4.11144 8.29155
upperneck 22.496 4.19479 -1.47051
head 8.2781 2.31911 -1.5307
rclavicle 1.55052e-014 4.69132e-014
rhumerus -33.3803 3.99539 -87.4127
rradius 39.2942
rwrist -20.969
rhand -16.2526 1.52213
rfingers 7.12502
rthumb 9.95643 -28.2224
lclavicle 1.55052e-014 4.69132e-014
lhumerus -25.3435 -4.36638 82.434
lradius 29.7664
lwrist -3.50068
lhand -17.8096 9.60377
lfingers 7.12502
lthumb 8.45411 39.4146
rfemur -17.3979 4.9743 23.3478
rtibia 40.5385
rfoot -25.8284 -18.8702
rtoes -35.555
lfemur -13.1366 -8.637 -27.1213
ltibia 33.5739
lfoot -22.4969 17.2821
ltoes 1.01247
202
root 12.2125 22.1377 0.425722 -172.457 -80.1993 171.324
lowerback 9.56878 2.02545 -3.81465
upperback 6.1559 2.06508 -2.74313
thorax 1.00055 0.837305 -0.876923
lowerneck -6.59316 4.21978 8.26484
upperneck 22.7047 4.33853 -1.51263
head 8.37241 2.37987 -1.52533
rclavicle -8.34896e-015 -6.36111e-015
rhumerus -33.2645 4.2377 -87.5322
rradius 39.7655
rwrist -21.2035
rhand -16.2971 1.60349
rfingers 7.12502
rthumb 9.91348 -28.1431
lclavicle -8.34896e-015 -6.36111e-015
lhumerus -25.2087 -4.43754 82.19
lradius 29.614
lwrist -3.5293
lhand -17.7702 9.59498
lfingers 7.12502
lthumb 8.49213 39.4042
rfemur -18.1889 4.56566 23.1512
rtibia 42.3687
rfoot -25.7739 -18.9149
rtoes -35.7059
lfemur -13.1861 -8.08406 -27.2569
ltibia 33.2706
lfoot -22.261 16.8781
ltoes 1.12385
203
root 12.2346 22.1437 0.448618 -171.678 -80.0756 170.576
lowerback 9.77326 1.9721 -4.05358
upperback 6.23019 1.95385 -2.82108
thorax 0.963737 0.771104 -0.819907
lowerneck -6.73234 4.3297 8.18782
upperneck 22.9978 4.48019 -1.53354
head 8.50346 2.43709 -1.5036
rclavicle -3.43897e-014 3.10104e-014
rhumerus -33.1977 4.53662 -87.6642
rradius 40.2804
rwrist -21.4606
rhand -16.3686 1.67421
rfingers 7.12502
rthumb 9.84456 -28.0756
lclavicle -3.43897e-014 3.10104e-014
lhumerus -25.0114 -4.50079 81.9445
lradius 29.4372
lwrist -3.61791
lhand -17.6953 9.61545
lfingers 7.12502
lthumb 8.5644 39.4218
rfemur -18.8975 4.02435 22.9984
rtibia 44.416
rfoot -25.6046 -19.103
rtoes -35.0924
lfemur -13.219 -7.6144 -27.3905
ltibia 32.956
lfoot -22.0053 16.5034
ltoes 1.29321
204
root 12.2565 22.1518 0.470134 -170.917 -80.0003 169.823
lowerback 10.0011 1.92161 -4.27908
upperback 6.30213 1.84479 -2.89382
thorax 0.912759 0.70648 -0.765413
lowerneck -6.87995 4.42995 8.07076
upperneck 23.3384 4.60398 -1.51806
head 8.64987 2.48519 -1.46433
rclavicle 3.8763e-014 -1.74931e-014
rhumerus -33.199 4.85133 -87.8018
rradius 40.823
rwrist -21.7216
rhand -16.4525 1.72809
rfingers 7.12502
rthumb 9.76359 -28.0256
lclavicle 3.8763e-014 -1.74931e-014
lhumerus -24.7669 -4.54915 81.6973
lradius 29.2397
lwrist -3.77569
lhand -17.6319 9.64069
lfingers 7.12502
lthumb 8.62557 39.4445
rfemur -19.4853 3.36527 22.8847
rtibia 46.6295
rfoot -25.3092 -19.4658
rtoes -33.9332
lfemur -13.2071 -7.23551 -27.5346
ltibia 32.6188
lfoot -21.7294 16.2057
ltoes 1.41244
205
root 12.2784 22.162 0.489434 -170.283 -79.9842 169.198
lowerback 10.1984 1.87863 -4.46833
upperback 6.39019 1.75061 -2.95569
thorax 0.896348 0.649491 -0.719824
lowerneck -7.02043 4.50788 7.95518
upperneck 23.6687 4.69671 -1.49559
head 8.7903 2.51904 -1.42585
rclavicle 1.17283e-014 1.59028e-015
rhumerus -33.2195 5.12277 -87.9269
rradius 41.3631
rwrist -21.9536
rhand -16.526 1.79471
rfingers 7.12502
rthumb 9.69268 -27.9623
lclavicle 1.17283e-014 1.59028e-015
lhumerus -24.4319 -4.56586 81.4457
lradius 29.0254
lwrist -3.98304
lhand -17.58 9.67356
lfingers 7.12502
lthumb 8.67568 39.4753
rfemur -19.9549 2.60622 22.8358
rtibia 48.9326
rfoot -24.886 -20.0057
rtoes -32.5152
lfemur -13.1724 -6.94662 -27.6543
ltibia 32.2532
lfoot -21.404 15.9977
ltoes 1.31927
206
root 12.2999 22.1745 0.506213 -169.841 -80.0291 168.786
lowerback 10.3744 1.85094 -4.5907
upperback 6.46807 1.68424 -3.01459
thorax 0.882373 0.608967 -0.710328
lowerneck -7.1194 4.55253 7.8821
upperneck 23.9749 4.74075 -1.47479
head 8.91425 2.53316 -1.40059
rclavicle 1.66979e-014 7.15625e-015
rhumerus -33.2959 5.29955 -88.042
rradius 41.8869
rwrist -22.1522
rhand -16.5778 1.89026
rfingers 7.12502
rthumb 9.6427 -27.869
lclavicle 1.66979e-014 7.15625e-015
lhumerus -24.0521 -4.58537 81.1882
lradius 28.8254
lwrist -4.19303
lhand -17.5312 9.72859
lfingers 7.12502
lthumb 8.72277 39.5284
rfemur -20.3012 1.7645 22.8593
rtibia 51.2331
rfoot -24.3766 -20.6524
rtoes -31.0805
lfemur -13.1331 -6.74674 -27.7253
ltibia 31.8629
lfoot -21.0487 15.843
ltoes 1.26866
207
root 12.3206 22.189 0.520363 -169.601 -80.1351 168.607
lowerback 10.5168 1.83724 -4.63694
upperback 6.53782 1.64624 -3.07428
thorax 0.879615 0.585455 -0.745915
lowerneck -7.17708 4.5639 7.85821
upperneck 24.2323 4.73548 -1.45377
head 9.01323 2.52856 -1.38926
rclavicle -3.1408e-014 -2.38542e-015
rhumerus -33.4184 5.3756 -88.15
rradius 42.3844
rwrist -22.3155
rhand -16.6049 1.99507
rfingers 7.12502
rthumb 9.61653 -27.7654
lclavicle -3.1408e-014 -2.38542e-015
lhumerus -23.6499 -4.62078 80.9248
lradius 28.6896
lwrist -4.35514
lhand -17.4996 9.80449
lfingers 7.12502
lthumb 8.75326 39.603
rfemur -20.5209 0.859835 22.9474
rtibia 53.4419
rfoot -23.8447 -21.261
rtoes -29.634
lfemur -13.1074 -6.62109 -27.7378
ltibia 31.4626
lfoot -20.6723 15.7108
ltoes 1.20775
208
root 12.3408 22.204 0.532128 -169.479 -80.2918 168.583
lowerback 10.6216 1.83282 -4.63377
upperback 6.5969 1.62886 -3.12978
thorax 0.886777 0.574403 -0.805802
lowerneck -7.20033 4.54651 7.85875
upperneck 24.4341 4.69159 -1.43377
head 9.0856 2.5083 -1.38706
rclavicle -7.55382e-015 -3.4191e-014
rhumerus -33.5799 5.38439 -88.2443
rradius 42.8501
rwrist -22.4328
rhand -16.603 2.0595
rfingers 7.12502
rthumb 9.61838 -27.7009
lclavicle -7.55382e-015 -3.4191e-014
lhumerus -23.2529 -4.67029 80.6727
lradius 28.6531
lwrist -4.42153
lhand -17.4955 9.91714
lfingers 7.12502
lthumb 8.75722 39.7155
rfemur -20.6173 -0.0806465 23.0707
rtibia 55.487
rfoot -23.2784 -21.7657
rtoes -28.0621
lfemur -13.1164 -6.53688 -27.708
ltibia 31.0766
lfoot -20.2677 15.6018
ltoes 1.04991
